<svg xmlns="http://www.w3.org/2000/svg" viewBox="0 0 499.91 499.6"><defs><style>.cls-1{fill:#fff;}</style></defs><title>edit</title><g id="Layer_2" data-name="Layer 2"><g id="Layer_1-2" data-name="Layer 1"><g id="compose"><path class="cls-1" d="M390.1,468.4H31.2V78.3H250.5L282,47.9l-.8-.8H31.2A31.18,31.18,0,0,0,0,78.3V468.4a31.24,31.24,0,0,0,31.2,31.2H390.1a31.24,31.24,0,0,0,31.2-31.2V239.9l-31.2,29.8Z"/><path class="cls-1" d="M475.4,20.3C461.3,6.8,445.8,0,429.2,0c-26,0-44.9,16.8-50,21.9C371.9,29.1,165,235.6,165,235.6a14.06,14.06,0,0,0-3.4,5.9c-5.6,20.7-33.7,112.6-34,113.6a13.35,13.35,0,0,0,3.3,13.3,12.94,12.94,0,0,0,9.2,3.8,13.86,13.86,0,0,0,4-.6c1-.3,95.8-31,111.4-35.7a13.3,13.3,0,0,0,5.5-3.2c9.9-9.7,200-196.9,215.4-212.8,15.9-16.4,23.8-33.5,23.5-50.8C499.7,52.1,491.4,35.6,475.4,20.3ZM454.1,98.2c-8.7,9-76.7,76.2-202.1,199.7l-9.6,9.5c-14.4,4.5-48.8,15.5-74.8,23.9,8.4-27.7,18.4-61.1,22.9-76.9C217.3,227.6,394.5,50.7,401.3,44c1.3-1.3,13.3-12.8,28-12.8,8.4,0,16.4,3.8,24.6,11.7,9.8,9.4,14.8,18.4,15,26.8C468.9,78.4,464,87.9,454.1,98.2Z"/></g></g></g></svg>