<svg xmlns="http://www.w3.org/2000/svg" viewBox="0 0 246.28 211.61"><defs><style>.cls-1{fill:#fff;stroke:#fff;stroke-miterlimit:10;stroke-width:3.23px;}</style></defs><title>explore</title><g id="Layer_2" data-name="Layer 2"><g id="Layer_1-2" data-name="Layer 1"><g id="map_location" data-name="map location"><g id="_789-map-location_2x.png" data-name="789-map-location@2x.png"><path class="cls-1" d="M157.88,71.09a34.71,34.71,0,1,0-34.71,34.71A34.73,34.73,0,0,0,157.88,71.09Zm-60.77,0a26.06,26.06,0,1,1,26.06,26.06A26.06,26.06,0,0,1,97.1,71.09Zm147,132.48,0,0L200.76,125.4l0,0a4.3,4.3,0,0,0-3.74-2.29h-8.7a4.33,4.33,0,0,0,0,8.65h6.13L233,201.29H13.33l38.6-69.48h6.13a4.33,4.33,0,1,0,0-8.65h-8.7a4.27,4.27,0,0,0-3.74,2.29l0,0L2.15,203.53l0,0A4.26,4.26,0,0,0,5.94,210H240.33a4.34,4.34,0,0,0,4.33-4.33A3.84,3.84,0,0,0,244.12,203.58ZM192.64,71.09a69.48,69.48,0,1,0-139,0c0,43.42,69.48,112.84,69.48,112.84S192.64,114.51,192.64,71.09ZM123.16,10.32a60.79,60.79,0,0,1,60.77,60.77c0,34.71-60.77,99.86-60.77,99.86S62.39,105.81,62.39,71.09A60.76,60.76,0,0,1,123.16,10.32Z"/></g></g></g></g></svg>