<svg xmlns="http://www.w3.org/2000/svg" viewBox="0 0 270.42 270.41"><defs><style>.cls-1{fill:none;stroke:#fff;stroke-miterlimit:10;stroke-width:14.85px;}</style></defs><title>home</title><g id="Layer_2" data-name="Layer 2"><g id="Layer_1-2" data-name="Layer 1"><g id="Home"><path class="cls-1" d="M258.31,123.92,146.5,12.1a16,16,0,0,0-22.58,0L12.1,123.92c-4.56,4.55-5.94,7.05-3.46,13s10.12,9.85,16.58,9.85h16V255c0,8.42,8,8,8,8H91.27c8,0,8-8,8-8V178c.13-8,8-8,8-8H161s8,0,8,8v76.53s0,8.31,8,8.31,42.47.09,42.47.09c8,0,8-8,8-8V146.81H247A16,16,0,0,0,261.78,137C264.25,131,262.89,128.47,258.31,123.92Z"/></g></g></g></svg>