<svg xmlns="http://www.w3.org/2000/svg" viewBox="0 0 166.82 166.82"><defs><style>.cls-1,.cls-2{fill:#fff;}.cls-2{stroke:#fff;stroke-miterlimit:10;stroke-width:4px;}</style></defs><title>image</title><g id="Layer_2" data-name="Layer 2"><g id="Layer_1-2" data-name="Layer 1"><g id="image"><path class="cls-1" d="M147.67,166.82H19.15A19.19,19.19,0,0,1,0,147.67V19.15A19.19,19.19,0,0,1,19.15,0H147.64a19.2,19.2,0,0,1,19.18,19.15V147.67A19.19,19.19,0,0,1,147.67,166.82ZM19.15,6.74A12.43,12.43,0,0,0,6.74,19.15V147.67a12.43,12.43,0,0,0,12.41,12.41H147.64A12.43,12.43,0,0,0,160,147.67V19.15A12.43,12.43,0,0,0,147.64,6.74Z"/><path class="cls-2" d="M41.87,73.2A16.1,16.1,0,1,1,58,57.12,16.09,16.09,0,0,1,41.87,73.2Zm0-28.83A12.73,12.73,0,1,0,54.58,57.12,12.74,12.74,0,0,0,41.87,44.37Z"/><path class="cls-2" d="M144.7,121.45H23.32l40.3-45.81L76.47,88.88l24.16-34.3ZM30.76,118.08H138.43l-37.9-57.52L76.87,94.15,63.73,80.61Z"/></g></g></g></svg>