<svg xmlns="http://www.w3.org/2000/svg" viewBox="0 0 45.97 46.77"><defs><style>.cls-1{fill:#fff;}</style></defs><title>logout</title><g id="Layer_2" data-name="Layer 2"><g id="Layer_1-2" data-name="Layer 1"><path class="cls-1" d="M27.07,10.22V9.93A6.15,6.15,0,0,0,21,3.8l-11,0A6.14,6.14,0,0,0,3.8,9.88l0,26.94A6.16,6.16,0,0,0,9.9,43l11,0A6.14,6.14,0,0,0,27,36.88v-.33h3.75v.34a9.9,9.9,0,0,1-9.88,9.88l-11,0A9.9,9.9,0,0,1,0,36.83l0-27A9.92,9.92,0,0,1,9.93,0L21,0a9.88,9.88,0,0,1,9.87,9.89v.28Z"/><polygon class="cls-1" points="38.32 30.1 38.32 25.57 14.79 25.57 14.79 21.2 38.32 21.2 38.32 16.65 45.97 23.38 38.32 30.1"/></g></g></svg>