<svg xmlns="http://www.w3.org/2000/svg" viewBox="0 0 500 500"><defs><style>.cls-1{fill:#54babe;}</style></defs><title>sad</title><g id="Layer_2" data-name="Layer 2"><g id="Layer_1-2" data-name="Layer 1"><g id="sad_emoticon" data-name="sad emoticon"><g id="_677-emoticon-sad.png" data-name="677-emoticon-sad.png"><path class="cls-1" d="M353.2,329.2S303,303.5,250,303.5s-103.2,25.7-103.2,25.7-12.3,7.2-12.3,17.9c0,9.2,8.6,16.8,17.9,16.8,3.5,0,13.2-6.7,13.2-6.7s30.8-17.9,84.4-17.9,84.4,17.8,84.4,17.8c-.3-.2,9.8,6.7,13.2,6.7,9.2,0,17.9-7.5,17.9-16.8C365.5,335.9,353.2,329.2,353.2,329.2ZM160.7,232.1A35.7,35.7,0,1,0,125,196.4,35.72,35.72,0,0,0,160.7,232.1Zm178.6-71.4A35.7,35.7,0,1,0,375,196.4,35.72,35.72,0,0,0,339.3,160.7ZM250,0C53.9,0,0,53.9,0,250S53.2,500,250,500s250-53.2,250-250S446.1,0,250,0Zm0,464.3C73.8,464.3,35.7,426.2,35.7,250S73.8,35.7,250,35.7,464.3,73.8,464.3,250,426.2,464.3,250,464.3Z"/></g></g></g></g></svg>