<svg xmlns="http://www.w3.org/2000/svg" viewBox="0 0 172.34 172.34"><defs><style>.cls-1{fill:#b3b3b3;stroke:#ccc;stroke-miterlimit:10;stroke-width:2.01px;}</style></defs><title>search-icon</title><g id="Layer_2" data-name="Layer 2"><g id="Layer_1-2" data-name="Layer 1"><g id="search"><path class="cls-1" d="M107.46,1A63.83,63.83,0,0,0,51,94.72L6.59,139.14l0,0a18.77,18.77,0,1,0,26.54,26.54h0l44.39-44.39A63.88,63.88,0,1,0,107.46,1ZM26.52,159a9.37,9.37,0,1,1-13.25-13.25l0,0,42.92-42.92a63,63,0,0,0,13.29,13.29Zm80.94-40.91a53.21,53.21,0,1,1,53.21-53.21A53.22,53.22,0,0,1,107.46,118.12Z"/><path class="cls-1" d="M107.46,27.61A37.28,37.28,0,0,0,70.19,64.88a2.66,2.66,0,1,0,5.31,0A31.92,31.92,0,0,1,107.43,33a2.66,2.66,0,0,0,2.66-2.66A2.62,2.62,0,0,0,107.46,27.61Z"/></g></g></g></svg>